# xmcd CD database file
#
# Track frame offsets:
#	150
#	23619
#	37613
#	65246
#	83529
#	106614
#	123054
#	143104
#	160866
#	190420
#	226032
#
# Disc length: 3322 seconds
#
# Revision: 2
# Processed by: cddbd v1.5.2PL0 Copyright (c) Steve Scherf et al.
# Submitted via: CDex 1.70beta2
#
DISCID=760cf80b
DTITLE=Kelarova, Ida &. Desiderius Dužda - Jazz Famelija - Aven bachtale
DYEAR=2009
DGENRE=Jazz
TTITLE0=Baro džives
TTITLE1=Čhaje, čaje
TTITLE2=Duj džeńora
TTITLE3=Šunes man
TTITLE4=Madara pes
TTITLE5=Amen bašavas
TTITLE6=Džava,džava
TTITLE7=Kada baro svetos
TTITLE8=Bari vera
TTITLE9=Lakera kale bala
TTITLE10=Kamav tut
EXTD=YEAR: 2009
EXTT0=
EXTT1=
EXTT2=
EXTT3=
EXTT4=
EXTT5=
EXTT6=
EXTT7=
EXTT8=
EXTT9=
EXTT10=
PLAYORDER=
